<svg width="32" height="32" viewBox="0 0 32 32" fill="none" xmlns="http://www.w3.org/2000/svg">
<path fill-rule="evenodd" clip-rule="evenodd" d="M3.7647 32C1.68552 32 -7.29278e-07 30.3145 -7.29278e-07 28.2353L-7.29278e-07 12.1305C-7.29278e-07 1.57119 14.9046 -0.63239 17.9603 9.47494L21.2469 20.3462C21.4245 20.9333 21.7029 21.1842 21.9341 21.3171C22.2132 21.4774 22.614 21.5655 23.0644 21.4989C23.5148 21.4323 23.873 21.232 24.0938 20.9978C24.2766 20.8037 24.4706 20.4829 24.4706 19.8695L24.4706 3.76471C24.4706 1.68552 26.1561 3.75861e-06 28.2353 3.75861e-06V3.75861e-06C30.3145 3.75861e-06 32 1.68552 32 3.76471L32 19.8695C32 30.4287 17.0954 32.6325 14.0397 22.5251L10.7531 11.6539C10.5755 11.0667 10.2971 10.8158 10.0659 10.6829C9.78675 10.5226 9.38596 10.4346 8.93555 10.5012C8.48514 10.5678 8.12697 10.768 7.90622 11.0022C7.72336 11.1963 7.52941 11.5171 7.52941 12.1305L7.52941 28.2353C7.52941 30.3145 5.84389 32 3.7647 32V32Z" fill="#67DAA8"/>
<path fill-rule="evenodd" clip-rule="evenodd" d="M12.1304 0H28.2353C26.1561 2.88135e-06 24.4706 1.68552 24.4706 3.76471V7.5294L12.1304 7.52941C11.517 7.52941 11.1963 7.72336 11.0022 7.90622C10.7679 8.12697 10.5677 8.48514 10.5011 8.93555C10.4345 9.38596 10.5225 9.78675 10.6829 10.0659C10.8157 10.2971 11.0666 10.5755 11.6538 10.7531L22.5251 14.0397C32.6325 17.0954 30.4287 32 19.8695 32L3.76471 32C1.68552 32 0 30.3145 0 28.2353C0 26.1561 1.68551 24.4706 3.7647 24.4706L19.8695 24.4706C20.4829 24.4706 20.8037 24.2766 20.9977 24.0938C21.232 23.873 21.4322 23.5148 21.4988 23.0644C21.5654 22.614 21.4774 22.2132 21.317 21.9341C21.1842 21.7029 20.9333 21.4245 20.3461 21.2469L9.47489 17.9603C-0.632436 14.9046 1.57114 0 12.1304 0Z" fill="#E62695"/>
</svg>
