<?xml version="1.0" encoding="utf-8"?>
<!-- Generator: Adobe Illustrator 22.0.1, SVG Export Plug-In . SVG Version: 6.00 Build 0)  -->
<svg version="1.1" id="Layer_1" xmlns="http://www.w3.org/2000/svg" xmlns:xlink="http://www.w3.org/1999/xlink" x="0px" y="0px"
	 viewBox="0 0 24 24" style="enable-background:new 0 0 24 24;" xml:space="preserve">
<style type="text/css">
	.st0{fill:#231F20;}
</style>
<g>
	<path class="st0" d="M22.2,0H1.8C0.8,0,0,0.8,0,1.7v20.5c0,1,0.8,1.7,1.8,1.7h20.5c1,0,1.8-0.8,1.8-1.7V1.7C24,0.8,23.2,0,22.2,0z
		 M23,22.3c0,0.4-0.3,0.7-0.8,0.7H1.8C1.3,23,1,22.7,1,22.3V1.7C1,1.3,1.3,1,1.8,1h20.5C22.7,1,23,1.3,23,1.7V22.3z"/>
	<rect x="3.6" y="9" class="st0" width="3.6" height="11.5"/>
	<path class="st0" d="M5.3,3.3c-1.1,0-2.1,0.9-2.1,2.1c0,1.1,0.9,2.1,2.1,2.1c1.1,0,2.1-0.9,2.1-2.1C7.4,4.2,6.5,3.3,5.3,3.3z"/>
	<path class="st0" d="M16.2,8.7c-1.7,0-2.9,0.9-3.4,1.8h0V9H9.4v11.5h3.6v-5.7c0-1.5,0.3-2.9,2.1-2.9c1.8,0,1.8,1.7,1.8,3v5.6h3.6
		v-6.3C20.5,11.1,19.8,8.7,16.2,8.7z"/>
</g>
</svg>
