<?xml version="1.0" encoding="utf-8"?>
<!-- Generator: Adobe Illustrator 22.0.1, SVG Export Plug-In . SVG Version: 6.00 Build 0)  -->
<svg version="1.1" id="Layer_1" xmlns="http://www.w3.org/2000/svg" xmlns:xlink="http://www.w3.org/1999/xlink" x="0px" y="0px"
	 viewBox="0 0 24 24" style="enable-background:new 0 0 24 24;" xml:space="preserve">
<style type="text/css">
	.st0{fill:#231F20;}
	.st1{fill:#FFFFFF;}
</style>
<g>
	<g>
		<polygon class="st0" points="8.3,12 14.7,3.5 15.7,4.3 9.9,12 15.7,19.8 14.7,20.5 		"/>
		<path class="st1" d="M14.7,3.7l0.8,0.6L9.7,12l5.8,7.7l-0.8,0.6L8.5,12L14.7,3.7 M14.7,3.4l-0.1,0.2l-6.2,8.3L8.2,12l0.1,0.1
			l6.2,8.3l0.1,0.2l0.2-0.1l0.8-0.6l0.2-0.1l-0.1-0.2L10,12l5.7-7.6l0.2-0.2l-0.2-0.1l-0.8-0.6L14.7,3.4L14.7,3.4z"/>
	</g>
</g>
</svg>
